<mxfile host="app.diagrams.net" modified="2021-11-16T03:01:45.194Z" agent="5.0 (Macintosh; Intel Mac OS X 10_15_7) AppleWebKit/537.36 (KHTML, like Gecko) Chrome/95.0.4638.69 Safari/537.36" etag="DcceGMCk4WhLreTq0dSL" version="15.7.1" type="github">
  <diagram id="vSLZX9MyWZ4kArganl41" name="第 1 页">
    <mxGraphModel dx="1426" dy="684" grid="1" gridSize="10" guides="1" tooltips="1" connect="1" arrows="1" fold="1" page="1" pageScale="1" pageWidth="600" pageHeight="500" math="0" shadow="0">
      <root>
        <mxCell id="0" />
        <mxCell id="1" parent="0" />
        <mxCell id="6olosEydABlg218z0X-h-1" value="iOS" style="rounded=0;whiteSpace=wrap;html=1;fillColor=none;" vertex="1" parent="1">
          <mxGeometry x="40" y="340" width="120" height="60" as="geometry" />
        </mxCell>
        <mxCell id="6olosEydABlg218z0X-h-2" value="android" style="rounded=0;whiteSpace=wrap;html=1;fillColor=none;" vertex="1" parent="1">
          <mxGeometry x="180" y="340" width="120" height="60" as="geometry" />
        </mxCell>
        <mxCell id="6olosEydABlg218z0X-h-12" style="edgeStyle=orthogonalEdgeStyle;rounded=0;orthogonalLoop=1;jettySize=auto;html=1;entryX=0.5;entryY=1;entryDx=0;entryDy=0;" edge="1" parent="1" source="6olosEydABlg218z0X-h-3" target="6olosEydABlg218z0X-h-4">
          <mxGeometry relative="1" as="geometry" />
        </mxCell>
        <mxCell id="6olosEydABlg218z0X-h-3" value="" style="rounded=0;whiteSpace=wrap;html=1;fillColor=none;" vertex="1" parent="1">
          <mxGeometry x="40" y="230" width="400" height="90" as="geometry" />
        </mxCell>
        <mxCell id="6olosEydABlg218z0X-h-13" style="edgeStyle=orthogonalEdgeStyle;rounded=0;orthogonalLoop=1;jettySize=auto;html=1;exitX=0;exitY=0.5;exitDx=0;exitDy=0;entryX=1;entryY=0.5;entryDx=0;entryDy=0;" edge="1" parent="1" source="6olosEydABlg218z0X-h-4" target="6olosEydABlg218z0X-h-5">
          <mxGeometry relative="1" as="geometry" />
        </mxCell>
        <mxCell id="6olosEydABlg218z0X-h-4" value="AutoService" style="ellipse;whiteSpace=wrap;html=1;" vertex="1" parent="1">
          <mxGeometry x="480" y="130" width="120" height="80" as="geometry" />
        </mxCell>
        <mxCell id="6olosEydABlg218z0X-h-5" value="native-bridge" style="rounded=0;whiteSpace=wrap;html=1;fillColor=none;" vertex="1" parent="1">
          <mxGeometry x="40" y="140" width="400" height="60" as="geometry" />
        </mxCell>
        <mxCell id="6olosEydABlg218z0X-h-6" value="" style="rounded=0;whiteSpace=wrap;html=1;fillColor=none;" vertex="1" parent="1">
          <mxGeometry x="40" y="40" width="400" height="60" as="geometry" />
        </mxCell>
        <mxCell id="6olosEydABlg218z0X-h-7" value="功能组件" style="rounded=0;whiteSpace=wrap;html=1;fillColor=none;" vertex="1" parent="1">
          <mxGeometry x="110" y="245" width="120" height="60" as="geometry" />
        </mxCell>
        <mxCell id="6olosEydABlg218z0X-h-8" value="业务组件" style="rounded=0;whiteSpace=wrap;html=1;fillColor=none;" vertex="1" parent="1">
          <mxGeometry x="260" y="245" width="120" height="60" as="geometry" />
        </mxCell>
        <mxCell id="6olosEydABlg218z0X-h-9" value="模块" style="text;html=1;strokeColor=none;fillColor=none;align=center;verticalAlign=middle;whiteSpace=wrap;rounded=0;" vertex="1" parent="1">
          <mxGeometry x="50" y="240" width="60" height="30" as="geometry" />
        </mxCell>
        <mxCell id="6olosEydABlg218z0X-h-11" value="PC" style="rounded=0;whiteSpace=wrap;html=1;fillColor=none;shadow=0;glass=0;gradientColor=#ffffff;gradientDirection=north;strokeColor=default;dashed=1;" vertex="1" parent="1">
          <mxGeometry x="320" y="340" width="120" height="60" as="geometry" />
        </mxCell>
        <mxCell id="6olosEydABlg218z0X-h-14" value="Web" style="rounded=0;whiteSpace=wrap;html=1;shadow=0;glass=0;dashed=1;sketch=1;strokeColor=default;fillColor=none;gradientColor=#ffffff;gradientDirection=north;" vertex="1" parent="1">
          <mxGeometry x="80" y="55" width="90" height="30" as="geometry" />
        </mxCell>
        <mxCell id="6olosEydABlg218z0X-h-15" value="RN" style="rounded=0;whiteSpace=wrap;html=1;shadow=0;glass=0;dashed=1;sketch=1;strokeColor=default;fillColor=none;gradientColor=#ffffff;gradientDirection=north;" vertex="1" parent="1">
          <mxGeometry x="190" y="55" width="90" height="30" as="geometry" />
        </mxCell>
        <mxCell id="6olosEydABlg218z0X-h-16" value="Flutter" style="rounded=0;whiteSpace=wrap;html=1;shadow=0;glass=0;dashed=1;sketch=1;strokeColor=default;fillColor=none;gradientColor=#ffffff;gradientDirection=north;" vertex="1" parent="1">
          <mxGeometry x="310" y="55" width="90" height="30" as="geometry" />
        </mxCell>
        <mxCell id="6olosEydABlg218z0X-h-17" value="跨平台" style="text;html=1;strokeColor=none;fillColor=none;align=center;verticalAlign=middle;whiteSpace=wrap;rounded=0;shadow=0;glass=0;dashed=1;sketch=1;" vertex="1" parent="1">
          <mxGeometry x="40" y="40" width="60" height="20" as="geometry" />
        </mxCell>
      </root>
    </mxGraphModel>
  </diagram>
</mxfile>
